<svg version="1.1" preserveAspectRatio="none" xmlns="http://www.w3.org/2000/svg" width="500" height="500" viewBox="0 0 500 500"><rect width="100%" height="100%" fill="#1A1A1A" fill-opacity="1"/><svg viewBox="167.3108 216.5127 398.398 232.1867" width="333" height="194.07268886892" x="83.5px" y="152.9637px" xmlns="http://www.w3.org/2000/svg" xmlns:xlink="http://www.w3.org/1999/xlink" preserveAspectRatio="none"><defs></defs><style>.companyName {fill:#EBE7D9;fill-opacity:1;}.icon2 {fill:#BA3521;fill-opacity:1;}.icon3 {fill:#F55139;fill-opacity:1;}.icon3-str {stroke:#F55139;stroke-opacity:1;}.shape {fill:#35247B;fill-opacity:1;}</style><g opacity="1" transform="rotate(0 246.9904 216.5127)">
<svg width="239.0388" height="232.1867" x="246.9904" y="216.5127" version="1.1" preserveAspectRatio="none" viewBox="7.699998378753662 9.399999618530272 84.60001373291016 82.17499542236328">
  <g transform="matrix(1 0 0 1 0 0)" class="shape"><path d="M7.8,54.6c0.7,0,1.5,0,2.2,0c1.3,0,2.6,0,4,0c1.9,0,3.9-0.1,5.8-0.1c1.6,0,3.2-0.1,4.8-0.1c1.7,0,3.5-0.1,5.2-0.1  c1.7,0,3.4-0.1,5.1-0.1c1.9,0,3.9-0.1,5.8-0.1c2,0,4.1-0.1,6.1-0.1c0.5,0,0.9,0,1.4,0c-0.9,0-1.9,0-2.8,0c-2.6,0-5.2-0.1-7.7-0.1  c-1.8,0-3.6-0.1-5.3-0.1c-1.8,0-3.5-0.1-5.3-0.1c-1.5,0-2.9-0.1-4.4-0.1c-1.7,0-3.3-0.1-5-0.1c-2.1,0-4.3-0.1-6.4-0.1  c-1.2,0-2.4-0.1-3.6-0.1c1.3,0,2.7,0,4,0c1.8,0,3.6-0.1,5.4-0.1c0.7,0,1.5,0,2.2,0c2,0,3.9-0.1,5.9-0.1c0.7,0,1.5,0,2.2,0  c1.6,0,3.2-0.1,4.8-0.1c2.1,0,4.3-0.1,6.4-0.1c1.9,0,3.7-0.1,5.6-0.1c0.8,0,1.5,0,2.3-0.1c-0.1,0-0.3,0-0.4,0c-0.9,0-1.7,0-2.6,0  c-1.8,0-3.7-0.1-5.5-0.1c-1.6,0-3.3,0-4.9-0.1c-1.9,0-3.8-0.1-5.7-0.1c-1.7,0-3.4-0.1-5.1-0.1c-1.6,0-3.2-0.1-4.7-0.1  c-1.6,0-3.2,0-4.8-0.1c-1.7,0-3.4-0.1-5.1-0.1c0.7,0,1.4,0,2.1,0c1.4,0,2.7,0,4.1,0c1.9,0,3.8-0.1,5.7-0.1c1.6,0,3.2-0.1,4.8-0.1  c1.7,0,3.4-0.1,5.1-0.1c1.7,0,3.3-0.1,5-0.1c2,0,4.1-0.1,6.1-0.1c1.6,0,3.3,0,4.9-0.1c0.3,0,0.6,0,1,0c-0.7,0-1.3,0-2-0.1  c-1.8,0-3.7-0.1-5.5-0.1c-1.2,0-2.4,0-3.6-0.1c-1.1,0-2.2,0-3.4,0c-1.5,0-3-0.1-4.5-0.1c-1.5,0-3,0-4.5-0.1c-2.1,0-4.1-0.1-6.2-0.1  c-2,0-4-0.1-6-0.1c-1,0-2-0.1-3-0.1c0.6,0,1.1,0,1.7,0c1.5,0,3,0,4.6,0c1.7,0,3.3-0.1,5-0.1c1.6,0,3.2-0.1,4.8-0.1  c1.8,0,3.6-0.1,5.5-0.1c1.5,0,2.9-0.1,4.4-0.1c1.6,0,3.3-0.1,4.9-0.1c2.5,0,5.1-0.1,7.6-0.1c0.1,0,0.1,0,0.2,0c-0.6,0-1.2,0-1.8,0  c-1.9,0-3.7-0.1-5.6-0.1c-1.1,0-2.2,0-3.4-0.1c-1.1,0-2.3,0-3.4,0c-1.8,0-3.7-0.1-5.5-0.1c-1.4,0-2.8,0-4.1-0.1  c-1.6,0-3.3-0.1-4.9-0.1c-1.5,0-2.9-0.1-4.4-0.1c-1.8,0-3.6-0.1-5.4-0.1c0.6,0,1.2,0,1.8,0c1.4,0,2.8,0,4.2,0c1.6,0,3.2-0.1,4.8-0.1  c1.5,0,3.1,0,4.6-0.1c1.4,0,2.7-0.1,4.1-0.1c2.5,0,4.9-0.1,7.4-0.1c1.8,0,3.6-0.1,5.5-0.1c2.2,0,4.5-0.1,6.7-0.1c0.1,0,0.2,0,0.3,0  c-1,0-1.9,0-2.9-0.1c-1.5,0-2.9,0-4.4-0.1c-2.2,0-4.4-0.1-6.6-0.1c-2,0-4-0.1-6-0.1c-1.1,0-2.2,0-3.4-0.1c-1.6,0-3.1-0.1-4.7-0.1  c-0.7,0-1.5,0-2.2,0c-1.7,0-3.5,0-5.2-0.1c-1.4,0-2.7-0.1-4.1-0.1c0.6,0,1.2,0,1.8,0c1.5,0,3,0,4.5,0c1.6,0,3.2-0.1,4.7-0.1  c1.9,0,3.9-0.1,5.8-0.1c1.7,0,3.5-0.1,5.2-0.1c1.7,0,3.3-0.1,5-0.1c2,0,4-0.1,6-0.1c2.2,0,4.4-0.1,6.6-0.1c2.4,0,4.9,0,7.3,0  c2.8,0,5.6,0.1,8.3,0.1c2.1,0,4.2,0.1,6.3,0.1c1.7,0,3.4,0.1,5.1,0.1c1.7,0,3.4,0.1,5.1,0.1c1.9,0,3.7,0.1,5.6,0.1  c2.3,0,4.5,0.1,6.8,0.1c0,0,0.1,0,0.2,0c-1.1,0-2,0.1-3,0.1c-1.7,0-3.5,0-5.2,0.1c-1.8,0-3.7,0.1-5.5,0.1c-1.5,0-3,0.1-4.6,0.1  c-1.4,0-2.9,0.1-4.3,0.1c-1.4,0-2.9,0.1-4.3,0.1c-1.2,0-2.4,0-3.6,0.1c-0.7,0-1.4,0-2.1,0c-2.3,0-4.5,0.1-6.8,0.1c1.5,0,2.9,0,4.4,0  c1.7,0,3.5,0.1,5.2,0.1c2.1,0,4.2,0.1,6.3,0.1c1.8,0,3.6,0.1,5.3,0.1c1.9,0,3.7,0.1,5.6,0.1c1.5,0,3.1,0.1,4.6,0.1  c2.2,0,4.3,0.1,6.5,0.1c0.5,0,1,0,1.5,0c-1,0-2,0.1-3,0.1c-1.7,0-3.4,0-5.2,0.1c-1.7,0-3.5,0.1-5.2,0.1c-1.8,0-3.6,0.1-5.4,0.1  c-1.5,0-3.1,0.1-4.6,0.1c-1.7,0-3.4,0.1-5.1,0.1c-2,0-4,0.1-6,0.1c-1.4,0-2.8,0.1-4.2,0.1c1.2,0,2.5,0,3.7,0c1.3,0,2.6,0,3.8,0.1  c1.2,0,2.3,0,3.5,0.1c1.5,0,3,0.1,4.6,0.1c1.9,0,3.7,0.1,5.6,0.1c1.8,0,3.6,0.1,5.3,0.1c1.7,0,3.5,0.1,5.2,0.1  c2.4,0,4.7,0.1,7.1,0.1c-0.2,0-0.5,0-0.7,0c-2,0-4,0.1-6,0.1c-1.5,0-3,0.1-4.6,0.1c-2,0-4,0.1-6.1,0.1c-1.8,0-3.6,0.1-5.4,0.1  c-1.9,0-3.8,0.1-5.7,0.1c-1.7,0-3.3,0.1-5,0.1c-1.5,0-3,0.1-4.5,0.1c-0.2,0-0.3,0-0.5,0c1,0,2.1,0,3.1,0c1.9,0,3.8,0.1,5.7,0.1  c0.5,0,1,0,1.5,0c1.5,0,3.1,0,4.6,0.1c1.7,0,3.5,0.1,5.2,0.1c1.8,0,3.7,0.1,5.5,0.1c1.5,0,3,0.1,4.6,0.1c2.2,0,4.5,0.1,6.7,0.1  c0.5,0,1,0,1.5,0c-0.7,0-1.4,0-2,0.1c-1.3,0-2.7,0-4,0.1c-1.2,0-2.3,0-3.5,0.1c-1.2,0-2.3,0-3.5,0.1c-1.6,0-3.2,0.1-4.7,0.1  c-1.4,0-2.9,0.1-4.3,0.1c-1.9,0-3.8,0.1-5.7,0.1c-1.7,0-3.4,0-5.1,0.1c-1.6,0-3.3,0.1-4.9,0.1c-0.4,0-0.9,0-1.3,0c1.2,0,2.4,0,3.6,0  c1.3,0,2.7,0,4,0.1c1.3,0,2.5,0,3.8,0.1c1.5,0,3.1,0.1,4.6,0.1c1.5,0,2.9,0.1,4.4,0.1c2.1,0,4.3,0.1,6.4,0.1c1.9,0,3.8,0.1,5.7,0.1  c1.7,0,3.4,0,5.1,0.1c0.5,0,1,0,1.5,0.1c-0.6,0-1.3,0-1.9,0.1c-2,0-4.1,0.1-6.1,0.1c-1.9,0-3.7,0.1-5.6,0.1c-1.7,0-3.3,0.1-5,0.1  c-1.8,0-3.6,0.1-5.5,0.1c-1,0-2,0-3.1,0c-1.3,0-2.5,0.1-3.8,0.1c-1,0-2,0-3.1,0c-2.1,0-4.3,0.1-6.4,0.1c-0.1,0-0.2,0-0.3,0  c1.5,0,3.1,0,4.6,0c1.5,0,3.1,0,4.6,0.1c1,0,2.1,0,3.1,0c1.7,0,3.4,0.1,5.2,0.1c1.8,0,3.7,0.1,5.5,0.1c1.7,0,3.4,0.1,5.2,0.1  c1.8,0,3.6,0.1,5.4,0.1c2.4,0,4.7,0.1,7.1,0.1c-1.6,0-3.2,0.1-4.8,0.1c-1.7,0-3.5,0.1-5.2,0.1c-1.1,0-2.2,0-3.3,0  c-1.5,0-3,0.1-4.5,0.1c-1.9,0-3.9,0.1-5.8,0.1c-1.6,0-3.2,0.1-4.8,0.1c-1.9,0-3.7,0.1-5.6,0.1c-2.3,0-4.6,0.1-6.8,0.1  c-2.1,0-4.3,0-6.4,0c-2,0-4.1-0.1-6.1-0.1c-1.8,0-3.6-0.1-5.3-0.1c-1.7,0-3.3-0.1-5-0.1c-1.9,0-3.8-0.1-5.7-0.1  c-1.8,0-3.7-0.1-5.5-0.1c-1.5,0-3,0-4.5-0.1C11,54.7,9.4,54.7,7.8,54.6C7.8,54.6,7.8,54.6,7.8,54.6z M48.7,54  C48.7,54,48.7,54,48.7,54c0.1,0,0.1,0,0.2,0c0,0,0,0,0,0C48.9,54,48.8,54,48.7,54z M50.4,54L50.4,54L50.4,54L50.4,54z M47.7,48.5  L47.7,48.5L47.7,48.5L47.7,48.5z"></path><path d="M8.1,46.4c0.7,0,1.4,0,2.1,0c2,0,4-0.1,6.1-0.1c1,0,2.1,0,3.1,0c1.6,0,3.1-0.1,4.7-0.1c1.9,0,3.7-0.1,5.6-0.1  c1.5,0,3-0.1,4.5-0.1c1.6,0,3.2-0.1,4.8-0.1c1.5,0,2.9,0,4.4-0.1c2.1,0,4.3,0,6.4,0c2.6,0,5.2,0,7.8,0c2.1,0,4.2,0.1,6.2,0.1  c1.8,0,3.6,0.1,5.3,0.1c1.7,0,3.4,0.1,5.1,0.1c1.7,0,3.3,0.1,5,0.1c1.9,0,3.8,0.1,5.6,0.1c2.3,0,4.6,0.1,6.8,0.1c0,0,0.1,0,0.1,0  c-1.6,0-3.2,0.1-4.8,0.1c-1.8,0-3.6,0.1-5.4,0.1c-1,0-2.1,0-3.1,0c-1.5,0-2.9,0.1-4.4,0.1c-1.9,0-3.8,0.1-5.7,0.1  c-1.6,0-3.2,0.1-4.7,0.1c-1.7,0-3.4,0.1-5.1,0.1c-1.8,0-3.7,0.1-5.5,0.1c-2.3,0-4.7,0-7,0c-2.3,0-4.6-0.1-7-0.1  c-2.2,0-4.4-0.1-6.6-0.1c-3-0.1-5.9-0.1-8.9-0.2c-2.1,0-4.3-0.1-6.4-0.1c-2.1,0-4.3-0.1-6.4-0.1C9.9,46.5,9,46.4,8.1,46.4  C8.1,46.4,8.1,46.4,8.1,46.4z"></path><path d="M8.2,56c1.9,0,3.7,0,5.6-0.1c1.8,0,3.6-0.1,5.3-0.1c1.9,0,3.8-0.1,5.7-0.1c1.8,0,3.5-0.1,5.3-0.1c1.6,0,3.2-0.1,4.8-0.1  c1.8,0,3.6-0.1,5.4-0.1c1.7,0,3.5-0.1,5.2-0.1c2.5,0,5,0,7.6,0c1.6,0,3.1,0,4.7,0c2,0,4,0.1,6.1,0.1c1.8,0,3.6,0.1,5.3,0.1  c1.7,0,3.3,0.1,5,0.1c1.7,0,3.5,0.1,5.2,0.1c1.8,0,3.6,0.1,5.4,0.1c2.4,0,4.7,0.1,7.1,0.1c0,0,0.1,0,0.2,0c-0.7,0-1.4,0-2,0.1  c-1.6,0-3.3,0.1-4.9,0.1c-1.7,0-3.4,0.1-5.1,0.1c-0.6,0-1.3,0-1.9,0c-1.4,0-2.9,0.1-4.3,0.1c-1.4,0-2.8,0.1-4.2,0.1  c-1.1,0-2.2,0-3.3,0.1c-0.9,0-1.9,0-2.8,0c-2.9,0-5.9,0.1-8.8,0.1c-2.4,0-4.9,0-7.3,0c-2.6,0-5.2-0.1-7.8-0.1c-1.7,0-3.5,0-5.2-0.1  c-1.4,0-2.8-0.1-4.2-0.1c-2,0-4.1-0.1-6.1-0.1c-2.3,0-4.6-0.1-6.9-0.1c-1.5,0-2.9,0-4.4-0.1C11.2,56.1,9.7,56,8.2,56  C8.2,56,8.2,56,8.2,56z"></path><path d="M8.4,45c1.2,0,2.5,0,3.7,0c1.9,0,3.7-0.1,5.6-0.1c2.5,0,5-0.1,7.4-0.1c1.8,0,3.5-0.1,5.3-0.1c1.7,0,3.5-0.1,5.2-0.1  c2.2,0,4.5,0,6.7-0.1c4.1-0.1,8.2-0.1,12.3,0c2.5,0,5,0.1,7.4,0.1c2.3,0,4.6,0.1,6.9,0.1c1.7,0,3.4,0.1,5.1,0.1  c1.7,0,3.5,0.1,5.2,0.1c1.9,0,3.7,0.1,5.6,0.1c2.3,0,4.6,0.1,7,0.1c-0.3,0-0.6,0-0.9,0c-2,0.1-3.9,0.1-5.9,0.1c-1,0-2.1,0-3.1,0.1  c-1.1,0-2.2,0-3.2,0.1c-1.6,0-3.2,0.1-4.8,0.1c-1.9,0-3.9,0.1-5.8,0.1c-1.9,0-3.7,0.1-5.6,0.1c-2.5,0-5,0.1-7.5,0.1  c-3,0.1-6,0-8.9,0c-2.5,0-5-0.1-7.6-0.1c-1.8,0-3.7-0.1-5.5-0.1c-1.9,0-3.8-0.1-5.7-0.1c-0.8,0-1.6,0-2.5,0c-1.7,0-3.3-0.1-5-0.1  c-2.3,0-4.6-0.1-7-0.1C11.3,45.1,9.8,45.1,8.4,45C8.4,45,8.4,45,8.4,45z"></path><path d="M91.7,57.3c-0.6,0-1.3,0-1.9,0.1c-2.2,0-4.3,0.1-6.5,0.1c-1.9,0-3.7,0.1-5.6,0.1c-1.9,0-3.7,0.1-5.6,0.1  c-1.6,0-3.2,0.1-4.8,0.1c-2,0-4,0.1-6,0.1c-2.5,0-5.1,0.1-7.6,0.1c-2.5,0-5,0-7.6,0c-2.3,0-4.6,0-6.8-0.1c-1.9,0-3.9-0.1-5.8-0.1  c-1.7,0-3.4-0.1-5.1-0.1c-1.8,0-3.6-0.1-5.3-0.1c-1.9,0-3.7-0.1-5.6-0.1c-2.1,0-4.2-0.1-6.2-0.1c-1,0-2-0.1-3-0.1c0.8,0,1.6,0,2.4,0  c1.4,0,2.7,0,4.1-0.1c1.1,0,2.2,0,3.3-0.1c1.2,0,2.4,0,3.6-0.1c1.1,0,2.3,0,3.4-0.1c1.4,0,2.8-0.1,4.2-0.1c1.6,0,3.2-0.1,4.8-0.1  c1.7,0,3.4-0.1,5.1-0.1c1,0,1.9,0,2.9,0c2.1,0,4.2-0.1,6.2-0.1c2.4,0,4.8,0,7.2,0c2.6,0,5.1,0.1,7.7,0.1c1.9,0,3.7,0.1,5.6,0.1  c1.6,0,3.3,0.1,4.9,0.1c1.7,0,3.5,0.1,5.2,0.1c1.9,0,3.8,0.1,5.7,0.1C87.1,57.3,89.4,57.3,91.7,57.3C91.7,57.3,91.7,57.3,91.7,57.3z  "></path><path d="M8.4,43.6c1.6,0,3.3,0,4.9,0c2.3,0,4.6-0.1,6.9-0.1c1.8,0,3.6-0.1,5.5-0.1c1.7,0,3.4-0.1,5.1-0.1c1.9,0,3.8-0.1,5.7-0.1  c1.7,0,3.5-0.1,5.2-0.1c2.2,0,4.3-0.1,6.5-0.1c2.2,0,4.5,0,6.7,0c2.6,0,5.2,0.1,7.8,0.1c1.9,0,3.8,0.1,5.7,0.1  c1.9,0,3.7,0.1,5.6,0.1c1.5,0,3.1,0.1,4.6,0.1c1.7,0,3.3,0.1,5,0.1c1.9,0,3.7,0.1,5.6,0.1c0.9,0,1.8,0,2.7,0c-0.7,0-1.4,0-2.1,0.1  c-1.3,0-2.6,0.1-4,0.1c-2.2,0-4.4,0.1-6.7,0.1c-2.3,0-4.6,0.1-6.8,0.1c-1.5,0-3,0-4.5,0.1c-1.7,0-3.3,0.1-5,0.1  c-2,0-4.1,0.1-6.1,0.1c-2.6,0-5.3,0.1-7.9,0.1c-2.8,0-5.6,0-8.3-0.1c-1.9,0-3.9-0.1-5.8-0.1c-1.9,0-3.9-0.1-5.8-0.1  c-1.9,0-3.7-0.1-5.6-0.1c-1.8,0-3.6-0.1-5.4-0.1c-2.1,0-4.1-0.1-6.2-0.1C10.4,43.7,9.4,43.7,8.4,43.6C8.4,43.7,8.4,43.7,8.4,43.6z"></path><path d="M8.5,58.7c1.4,0,2.7,0,4.1,0c1.3,0,2.6,0,4-0.1c1.1,0,2.2,0,3.3-0.1c1.7,0,3.4-0.1,5.1-0.1c1.9,0,3.8-0.1,5.7-0.1  c1.9,0,3.8-0.1,5.7-0.1c1.7,0,3.5-0.1,5.2-0.1c3.2,0,6.3-0.1,9.5-0.1c1.3,0,2.6,0,4,0c2.6,0,5.2,0.1,7.8,0.1c1.7,0,3.5,0.1,5.2,0.1  c2,0,4.1,0.1,6.1,0.1c1.4,0,2.7,0,4.1,0.1c1.7,0,3.5,0.1,5.2,0.1c1.8,0,3.5,0.1,5.3,0.1c0.8,0,1.7,0,2.5,0.1c-0.2,0-0.4,0-0.5,0  c-1.7,0.1-3.5,0.1-5.2,0.1c-2.3,0-4.6,0.1-6.9,0.1c-2.3,0-4.5,0.1-6.8,0.1c-1.8,0-3.7,0.1-5.5,0.1c-1.1,0-2.2,0-3.3,0.1  c-1.8,0-3.6,0.1-5.4,0.1c-2.6,0-5.2,0-7.8,0c-2.4,0-4.7,0-7.1,0c-1.5,0-3.1,0-4.6-0.1c-1.2,0-2.4,0-3.6,0c-1.9,0-3.8-0.1-5.7-0.1  c-1.7,0-3.3-0.1-5-0.1c-1.6,0-3.3-0.1-4.9-0.1c-1.7,0-3.3-0.1-5-0.1c-0.9,0-1.8,0-2.6,0C10.3,58.8,9.4,58.7,8.5,58.7  C8.5,58.7,8.5,58.7,8.5,58.7z"></path><path d="M91.3,42.3c-1.7,0-3.3,0.1-5,0.1c-1.8,0-3.6,0.1-5.4,0.1c-1.1,0-2.1,0-3.2,0c-1.6,0-3.2,0.1-4.8,0.1c-2,0-3.9,0.1-5.9,0.1  c-1.7,0-3.4,0.1-5.2,0.1c-2.1,0-4.1,0.1-6.2,0.1c-2.5,0-5,0-7.6,0c-2.7,0-5.4,0-8.1-0.1c-2,0-4.1-0.1-6.1-0.1  c-1.8,0-3.6-0.1-5.5-0.1c-1.6,0-3.3-0.1-4.9-0.1c-2,0-3.9-0.1-5.9-0.1c-1.8,0-3.5,0-5.3-0.1c-1.3,0-2.5-0.1-3.8-0.1  c0.6,0,1.2,0,1.8,0c1.5,0,3,0,4.5,0c1.7,0,3.4-0.1,5.1-0.1c2,0,4-0.1,6-0.1c1.9,0,3.7-0.1,5.6-0.1c1.9,0,3.9-0.1,5.8-0.1  c3.1,0,6.1-0.1,9.2-0.1c2,0,4,0,6,0c2.6,0,5.1,0,7.7,0.1c2.3,0,4.6,0.1,6.8,0.1c2,0,4,0.1,6.1,0.1c2,0,4.1,0.1,6.1,0.1  c0.9,0,1.8,0,2.7,0c1.5,0,2.9,0,4.4,0.1c1.6,0,3.2,0,4.8,0.1C91.1,42.3,91.2,42.3,91.3,42.3C91.3,42.3,91.3,42.3,91.3,42.3z"></path><path d="M91.1,60.1c-2.2,0-4.3,0.1-6.5,0.1c-1.4,0-2.8,0-4.1,0.1c-1,0-2.1,0-3.1,0c-1.5,0-3.1,0.1-4.6,0.1c-2.2,0-4.5,0.1-6.7,0.1  c-1.9,0-3.9,0.1-5.8,0.1c-2.2,0-4.3,0-6.5,0.1c-3.1,0-6.1,0-9.2,0c-2.3,0-4.5-0.1-6.8-0.1c-0.8,0-1.6,0-2.4,0  c-1.9,0-3.8-0.1-5.7-0.1c-1.2,0-2.4,0-3.6-0.1c-1.7,0-3.4-0.1-5.1-0.1c-0.8,0-1.6,0-2.4,0c-1.7,0-3.4,0-5.1-0.1  c-1.5,0-3.1-0.1-4.6-0.1c1.7,0,3.5,0,5.2-0.1c2.4,0,4.7-0.1,7.1-0.1c1.8,0,3.5-0.1,5.3-0.1c1.8,0,3.5-0.1,5.3-0.1  c1.9,0,3.8-0.1,5.7-0.1c2.9,0,5.9-0.1,8.8-0.1c2,0,4,0,6,0c2.7,0,5.5,0,8.2,0.1c2.4,0,4.8,0.1,7.2,0.1c1.8,0,3.6,0.1,5.4,0.1  c1.8,0,3.5,0.1,5.3,0.1c1.9,0,3.8,0.1,5.7,0.1C86.3,60,88.7,60,91.1,60.1C91.1,60.1,91.1,60.1,91.1,60.1z"></path><path d="M91,40.9c-0.4,0-0.8,0-1.2,0c-1.9,0-3.9,0.1-5.8,0.1c-1.5,0-3.1,0.1-4.6,0.1c-2.6,0-5.1,0.1-7.7,0.1c-1.6,0-3.2,0.1-4.7,0.1  c-1.9,0-3.9,0-5.8,0.1c-5,0.1-10.1,0.1-15.1,0.1c-1.6,0-3.2,0-4.8,0c-2.2,0-4.4-0.1-6.6-0.1c-1.5,0-2.9,0-4.4-0.1  c-2.2,0-4.3-0.1-6.5-0.1c-1.8,0-3.6-0.1-5.5-0.1c-2.1,0-4.3-0.1-6.4-0.1c-1,0-1.9-0.1-2.9-0.1c0.6,0,1.3,0,1.9,0c1.4,0,2.9,0,4.3,0  c1.7,0,3.4-0.1,5.1-0.1c2.1,0,4.1-0.1,6.2-0.1c0.6,0,1.2,0,1.9,0c1.2,0,2.4,0,3.6,0c1.2,0,2.4,0,3.6-0.1c2.8,0,5.7-0.1,8.5-0.1  c2.9,0,5.8,0,8.7,0c2.6,0,5.2,0,7.8,0c2.1,0,4.2,0.1,6.3,0.1c1.9,0,3.8,0.1,5.7,0.1c1.7,0,3.5,0.1,5.2,0.1c2.1,0,4.1,0.1,6.2,0.1  c1.4,0,2.9,0,4.3,0.1C89.2,40.9,90.1,40.9,91,40.9C91,40.9,91,40.9,91,40.9z"></path><path d="M90.6,61.5c-1.7,0-3.3,0.1-5,0.1c-1.8,0-3.6,0.1-5.3,0.1c-1.2,0-2.4,0-3.6,0.1c-1.7,0-3.4,0.1-5.1,0.1c-1.7,0-3.3,0.1-5,0.1  c-1.3,0-2.5,0-3.8,0.1c-1.9,0-3.8,0-5.7,0.1c-3.4,0-6.9,0-10.3,0c-3.1,0-6.2,0-9.3-0.1c-2.4,0-4.9-0.1-7.3-0.1c-1.8,0-3.7,0-5.5-0.1  c-2.1,0-4.1-0.1-6.2-0.1c-1.4,0-2.8,0-4.2-0.1c-1.6,0-3.3-0.1-4.9-0.1c0.6,0,1.1,0,1.7,0c1.5,0,2.9,0,4.4,0c1.7,0,3.4-0.1,5.1-0.1  c2,0,4-0.1,6.1-0.1c1.4,0,2.9,0,4.3-0.1c2.1,0,4.1-0.1,6.2-0.1c2.9,0,5.7-0.1,8.6-0.1c1.6,0,3.2,0,4.8,0c2.8,0,5.7,0,8.5,0  c2.4,0,4.8,0.1,7.2,0.1c2.1,0,4.1,0.1,6.2,0.1c1.9,0,3.7,0.1,5.6,0.1c1.8,0,3.6,0.1,5.5,0.1C85.8,61.4,88.2,61.4,90.6,61.5  C90.6,61.4,90.6,61.5,90.6,61.5z"></path><path d="M9.2,39.5c1.7,0,3.4,0,5.1-0.1c2.4,0,4.8-0.1,7.2-0.1c1.9,0,3.8-0.1,5.7-0.1c1.9,0,3.9-0.1,5.8-0.1c2.2,0,4.4-0.1,6.7-0.1  C44.3,39,49,39,53.6,39c1.8,0,3.6,0,5.4,0c2.4,0,4.8,0.1,7.2,0.1c1.9,0,3.7,0.1,5.6,0.1c2,0,4,0.1,6,0.1c1.9,0,3.7,0.1,5.6,0.1  c2.4,0,4.8,0.1,7.2,0.1c-1.6,0-3.2,0.1-4.8,0.1c-1.3,0-2.6,0-3.9,0c-1.9,0-3.7,0.1-5.6,0.1c-1.9,0-3.9,0.1-5.8,0.1  c-1.9,0-3.7,0.1-5.6,0.1c-1.7,0-3.4,0.1-5.1,0.1c-3.2,0-6.4,0.1-9.7,0.1c-2.5,0-5,0-7.6,0c-1.6,0-3.3,0-4.9-0.1c-1.3,0-2.7,0-4-0.1  c-1.3,0-2.5,0-3.8-0.1c-1.9,0-3.8-0.1-5.7-0.1c-1.7,0-3.5-0.1-5.2-0.1c-2.3,0-4.6-0.1-6.9-0.1C11.2,39.6,10.2,39.6,9.2,39.5  C9.2,39.6,9.2,39.5,9.2,39.5z"></path><path d="M90.4,62.8c-2.5,0-5,0.1-7.4,0.1c-2.4,0-4.7,0.1-7.1,0.1c-1.9,0-3.9,0.1-5.8,0.1c-2.1,0-4.1,0.1-6.2,0.1  c-3.2,0-6.3,0.1-9.5,0.1c-2.4,0-4.7,0-7.1,0c-2.9,0-5.7,0-8.6-0.1c-2.5,0-4.9-0.1-7.4-0.1c-2.1,0-4.1-0.1-6.2-0.1  c-2,0-3.9-0.1-5.9-0.1c-2.2,0-4.4-0.1-6.6-0.1c-1,0-1.9-0.1-2.9-0.1c0.7,0,1.3,0,2,0c1.5,0,3,0,4.5,0c1.9,0,3.8-0.1,5.7-0.1  c1.9,0,3.8-0.1,5.7-0.1c1.8,0,3.6-0.1,5.4-0.1c2.2,0,4.4,0,6.6-0.1c4.5-0.1,9.1-0.1,13.6-0.1c2,0,4,0,6.1,0c2.3,0,4.6,0.1,6.9,0.1  c1.8,0,3.6,0.1,5.4,0.1c1.9,0,3.8,0.1,5.7,0.1c1.9,0,3.7,0.1,5.6,0.1C85.3,62.7,87.9,62.8,90.4,62.8C90.4,62.8,90.4,62.8,90.4,62.8z  "></path><path d="M9.7,38.2c0.8,0,1.5,0,2.3,0c1.4,0,2.7,0,4.1,0c2.1,0,4.1-0.1,6.2-0.1c1.9,0,3.8-0.1,5.7-0.1c2,0,4-0.1,6.1-0.1  c2.6,0,5.2,0,7.7-0.1c4.1-0.1,8.1-0.1,12.2,0c3.1,0,6.3,0.1,9.4,0.1c2.5,0,5.1,0.1,7.6,0.1c1.9,0,3.8,0.1,5.7,0.1  c1.9,0,3.8,0.1,5.7,0.1c2.6,0,5.1,0.1,7.7,0.1c0.1,0,0.1,0,0.2,0c-0.6,0-1.2,0-1.9,0c-2.3,0-4.6,0.1-7,0.1c-1.9,0-3.8,0.1-5.7,0.1  c-2.1,0-4.3,0.1-6.4,0.1c-1.7,0-3.4,0-5.1,0.1c-2.1,0-4.1,0.1-6.2,0.1c-1,0-2,0-3,0c-3,0-6,0-8.9,0c-2.4,0-4.7,0-7.1-0.1  c-2.6,0-5.2-0.1-7.8-0.1c-1.6,0-3.2,0-4.8-0.1c-1.6,0-3.1-0.1-4.7-0.1c-2.5,0-5.1-0.1-7.6-0.1C12.7,38.3,11.2,38.2,9.7,38.2  C9.7,38.2,9.7,38.2,9.7,38.2z"></path><path d="M9.7,64.2c1.5,0,2.9,0,4.4,0c1.5,0,3,0,4.5-0.1c1.2,0,2.4,0,3.6,0c1.7,0,3.3-0.1,5-0.1c1.7,0,3.4-0.1,5.1-0.1  c1.1,0,2.2,0,3.2-0.1c2,0,4,0,6.1-0.1c4,0,8.1-0.1,12.1,0c3.2,0,6.4,0.1,9.6,0.1c2.5,0,5,0.1,7.4,0.1c1.9,0,3.8,0.1,5.7,0.1  c2,0,4.1,0.1,6.1,0.1c2.4,0,4.7,0.1,7.1,0.1c0,0,0.1,0,0.1,0c-0.3,0-0.5,0-0.8,0c-2.1,0.1-4.3,0.1-6.4,0.1c-1.2,0-2.3,0-3.5,0.1  c-1.3,0-2.5,0-3.8,0.1c-1.8,0-3.6,0.1-5.4,0.1c-1.9,0-3.8,0.1-5.7,0.1c-1.6,0-3.3,0.1-4.9,0.1c-0.9,0-1.8,0-2.7,0  c-3.2,0-6.4,0-9.6,0c-2.9,0-5.7,0-8.6-0.1c-2.5,0-4.9-0.1-7.4-0.1c-1.8,0-3.6,0-5.4-0.1c-2,0-4-0.1-6.1-0.1c-2.2,0-4.4-0.1-6.6-0.1  C12.1,64.3,10.9,64.2,9.7,64.2C9.7,64.2,9.7,64.2,9.7,64.2z"></path><path d="M89.7,36.9c-2.2,0-4.4,0.1-6.6,0.1c-1.3,0-2.5,0-3.8,0.1c-1.2,0-2.4,0-3.6,0.1c-1.7,0-3.4,0-5.1,0.1c-2.1,0-4.1,0.1-6.2,0.1  c-4.4,0.1-8.8,0.1-13.1,0.1c-3.2,0-6.5,0-9.7,0c-1,0-2.1,0-3.1,0c-2.3,0-4.6-0.1-6.9-0.1c-1.2,0-2.5,0-3.7-0.1c-1.2,0-2.5,0-3.7-0.1  c-1.2,0-2.5,0-3.7-0.1c-1.9,0-3.9-0.1-5.8-0.1c-1.5,0-3-0.1-4.6-0.1c0.8,0,1.7,0,2.5,0c1.5,0,2.9,0,4.4,0c2,0,4-0.1,6-0.1  c2.1,0,4.1-0.1,6.2-0.1c2.1,0,4.1-0.1,6.2-0.1c3.1,0,6.2-0.1,9.3-0.1c3.1,0,6.2,0,9.3,0c2.8,0,5.6,0,8.3,0.1c2.7,0,5.4,0.1,8.1,0.1  c2,0,4.1,0.1,6.1,0.1c1.9,0,3.9,0.1,5.8,0.1C84.7,36.7,87.2,36.8,89.7,36.9C89.7,36.8,89.7,36.8,89.7,36.9z"></path><path d="M10.5,65.5c0.9,0,1.7,0,2.6,0c1.4,0,2.8,0,4.2,0c1.2,0,2.3,0,3.5-0.1c2.1,0,4.1-0.1,6.2-0.1c1.3,0,2.6,0,3.9-0.1  c1.4,0,2.7,0,4.1,0c2.6,0,5.1-0.1,7.7-0.1c3.9,0,7.9,0,11.8,0c2.6,0,5.2,0,7.7,0.1c2.6,0,5.2,0.1,7.8,0.1c2,0,4,0.1,6,0.1  c2,0,4,0.1,6.1,0.1c2.3,0,4.6,0.1,6.9,0.1c0.1,0,0.2,0,0.2,0c-0.3,0-0.7,0-1,0c-2,0-4,0.1-6,0.1c-1.2,0-2.5,0-3.7,0.1  c-1.5,0-3,0-4.5,0.1c-2.1,0-4.1,0.1-6.2,0.1c-2.5,0-5,0.1-7.5,0.1c-4.9,0.1-9.8,0.1-14.8,0c-1.8,0-3.6,0-5.4,0c-1.9,0-3.9,0-5.8-0.1  c-2.3,0-4.6-0.1-7-0.1c-2.3,0-4.6-0.1-6.9-0.1c-2.4,0-4.9-0.1-7.3-0.1C12.2,65.6,11.3,65.6,10.5,65.5C10.5,65.5,10.5,65.5,10.5,65.5  z"></path><path d="M89.3,35.5c-0.4,0-0.7,0-1.1,0c-2,0-4.1,0.1-6.1,0.1c-1.7,0-3.4,0.1-5.1,0.1c-2.4,0-4.8,0.1-7.2,0.1c-2.5,0-4.9,0.1-7.4,0.1  c-4.5,0-9.1,0.1-13.6,0.1c-2.9,0-5.9,0-8.8,0c-2.3,0-4.7-0.1-7-0.1c-2,0-4-0.1-6-0.1c-1.8,0-3.6-0.1-5.5-0.1c-1.9,0-3.7,0-5.6-0.1  c-1.8,0-3.6-0.1-5.4-0.1c0.8,0,1.6,0,2.4,0c1.5,0,3.1,0,4.6,0c2.1,0,4.2-0.1,6.2-0.1c2,0,4.1-0.1,6.1-0.1c2.3,0,4.6-0.1,6.9-0.1  c3,0,6-0.1,8.9-0.1c2.9,0,5.9,0,8.8,0c1.7,0,3.5,0,5.2,0c2.9,0,5.7,0.1,8.6,0.1c2,0,3.9,0.1,5.9,0.1c2.4,0,4.8,0.1,7.2,0.1  c2.6,0,5.1,0.1,7.7,0.1C89.1,35.4,89.2,35.4,89.3,35.5z"></path><path d="M89,66.9c-0.5,0-1.1,0-1.6,0.1c-1.9,0-3.8,0.1-5.7,0.1c-1.4,0-2.8,0-4.2,0.1c-1.2,0-2.4,0-3.6,0c-2,0-4,0.1-6,0.1  c-1.9,0-3.8,0.1-5.7,0.1c-2.3,0-4.6,0-7,0.1c-2.8,0-5.6,0-8.3,0c-3.2,0-6.4,0-9.6-0.1c-2.7,0-5.4-0.1-8.2-0.1  c-2.3,0-4.6-0.1-6.9-0.1c-2.6,0-5.2-0.1-7.8-0.1c-1.1,0-2.1-0.1-3.2-0.1c0.6,0,1.2,0,1.8,0c1.5,0,3.1,0,4.6,0c1.8,0,3.6-0.1,5.5-0.1  c1.8,0,3.7-0.1,5.5-0.1c1.5,0,2.9-0.1,4.4-0.1c1,0,2.1,0,3.1,0c2.8,0,5.5-0.1,8.3-0.1c3.4,0,6.9,0,10.3,0c2.4,0,4.9,0,7.3,0  c2,0,4,0.1,6.1,0.1c1.8,0,3.6,0,5.4,0.1c1.8,0,3.6,0.1,5.4,0.1c2.8,0,5.7,0.1,8.5,0.1C87.9,66.9,88.4,66.9,89,66.9  C89,66.9,89,66.9,89,66.9z"></path><path d="M11.3,34.1c1.1,0,2.3,0,3.4,0c1.2,0,2.3,0,3.5,0c2.1,0,4.3-0.1,6.4-0.1c2.1,0,4.2-0.1,6.3-0.1c2.5,0,5.1-0.1,7.6-0.1  c5-0.1,9.9-0.1,14.9-0.1c2.4,0,4.7,0,7.1,0c1.8,0,3.6,0,5.4,0.1c1.5,0,3,0.1,4.6,0.1c1.3,0,2.6,0,3.9,0c2.3,0,4.6,0.1,6.9,0.1  c1.6,0,3.2,0,4.7,0.1c0.8,0,1.7,0,2.5,0.1c-0.4,0-0.7,0-1.1,0c-2.6,0-5.3,0.1-7.9,0.1c-2.1,0-4.2,0.1-6.2,0.1c-2.3,0-4.6,0.1-7,0.1  c-2.4,0-4.8,0-7.2,0.1c-4.6,0.1-9.2,0.1-13.8,0c-2.9,0-5.9-0.1-8.8-0.1c-2.2,0-4.4-0.1-6.6-0.1c-0.7,0-1.5,0-2.2,0  c-2.2,0-4.3-0.1-6.5-0.1c-2.2,0-4.3-0.1-6.5-0.1C13.5,34.2,12.4,34.1,11.3,34.1C11.3,34.1,11.3,34.1,11.3,34.1z"></path><path d="M88.3,68.3c-2.5,0-4.9,0.1-7.4,0.1c-1.4,0-2.8,0-4.2,0.1c-0.6,0-1.2,0-1.9,0c-2.8,0-5.7,0.1-8.5,0.1c-2.8,0-5.6,0.1-8.4,0.1  c-3.3,0-6.5,0.1-9.8,0c-3.1,0-6.1,0-9.2-0.1c-1.2,0-2.3,0-3.5,0c-2.3,0-4.6,0-6.8-0.1c-2.3,0-4.6-0.1-7-0.1c-1.5,0-2.9,0-4.4-0.1  c-2,0-4-0.1-6-0.1c0.8,0,1.6,0,2.4,0c1.5,0,2.9,0,4.4,0c1.9,0,3.8-0.1,5.7-0.1c2.4,0,4.9-0.1,7.3-0.1c0.9,0,1.9,0,2.8-0.1  c1.3,0,2.7,0,4,0c5-0.1,10.1-0.1,15.1-0.1c2.4,0,4.7,0,7.1,0c2.5,0,5.1,0.1,7.6,0.1c2.2,0,4.3,0.1,6.5,0.1c2.1,0,4.2,0.1,6.3,0.1  C83.1,68.2,85.7,68.2,88.3,68.3C88.3,68.3,88.3,68.3,88.3,68.3z"></path><path d="M11.8,32.7c0.9,0,1.7,0,2.6,0c1.5,0,3,0,4.5,0c2.1,0,4.3-0.1,6.4-0.1c2.4,0,4.8-0.1,7.2-0.1c1.6,0,3.2,0,4.8-0.1  c2.7,0,5.5-0.1,8.2-0.1c2.9,0,5.7,0,8.6,0c1.2,0,2.5,0,3.7,0c2.9,0,5.7,0.1,8.6,0.1c2.3,0,4.6,0.1,6.9,0.1c2.2,0,4.3,0.1,6.5,0.1  c2.6,0,5.2,0.1,7.7,0.1c0,0,0.1,0,0.1,0c-0.4,0-0.8,0-1.2,0c-1.9,0-3.7,0.1-5.6,0.1c-1.4,0-2.7,0-4.1,0.1c-0.8,0-1.6,0-2.4,0  c-2.1,0-4.1,0.1-6.2,0.1c-1,0-2.1,0-3.1,0c-2.3,0-4.6,0.1-7,0.1c-2.3,0-4.6,0-7,0c-2,0-4,0-6.1,0c-2.7,0-5.4,0-8.1-0.1  c-2.9,0-5.8-0.1-8.7-0.1c-2.1,0-4.2-0.1-6.3-0.1c-2.3,0-4.6-0.1-6.9-0.1C14.1,32.8,12.9,32.8,11.8,32.7  C11.8,32.7,11.8,32.7,11.8,32.7z"></path><path d="M87.7,69.7c-0.5,0-1.1,0-1.6,0c-1.9,0-3.7,0.1-5.6,0.1c-1.6,0-3.3,0-4.9,0.1c-1.2,0-2.5,0-3.7,0c-2.4,0-4.9,0.1-7.3,0.1  c-4,0-7.9,0.1-11.9,0.1c-3.6,0-7.2,0-10.8,0c-1.3,0-2.6,0-3.9,0c-2.2,0-4.5,0-6.7-0.1c-2.7,0-5.5-0.1-8.2-0.1  c-2.6,0-5.2-0.1-7.8-0.1c-1,0-2-0.1-3-0.1c0.7,0,1.3,0,2,0c1.6,0,3.2,0,4.8,0c2,0,4-0.1,6.1-0.1c2.4,0,4.9-0.1,7.3-0.1  c2.4,0,4.8-0.1,7.2-0.1c3.7,0,7.3,0,11-0.1c2.4,0,4.7,0,7.1,0c2.2,0,4.3,0,6.5,0.1c2.7,0,5.4,0.1,8.1,0.1c2.4,0,4.8,0.1,7.2,0.1  C82.2,69.6,84.9,69.6,87.7,69.7C87.6,69.6,87.6,69.6,87.7,69.7z"></path><path d="M87.6,31.4c-2.8,0-5.6,0.1-8.3,0.1c-2.4,0-4.9,0.1-7.3,0.1c-2,0-4,0.1-6,0.1c-3.7,0-7.4,0.1-11.1,0.1c-2.9,0-5.7,0-8.6,0  c-1.9,0-3.8,0-5.7,0c-2,0-4,0-6-0.1c-1.6,0-3.2,0-4.8,0c-1.9,0-3.9-0.1-5.8-0.1c-2.7,0-5.3-0.1-8-0.1c-1.2,0-2.3-0.1-3.5-0.1  c1.2,0,2.3,0,3.5,0c2,0,4-0.1,6-0.1c1.4,0,2.7,0,4.1,0c2.2,0,4.3-0.1,6.5-0.1c2.3,0,4.5-0.1,6.8-0.1c2,0,3.9,0,5.9,0  c2.9,0,5.8,0,8.7,0c3.6,0,7.3,0,10.9,0.1c2.5,0,5,0.1,7.5,0.1c2.3,0,4.5,0.1,6.8,0.1c2.7,0,5.4,0.1,8.1,0.1  C87.4,31.3,87.5,31.3,87.6,31.4C87.6,31.3,87.6,31.4,87.6,31.4z"></path><path d="M87,71.1c-2.7,0-5.4,0.1-8.1,0.1c-1.3,0-2.6,0-3.8,0.1c-1.5,0-3,0-4.5,0.1c-1.6,0-3.1,0-4.7,0.1c-1.8,0-3.6,0-5.4,0  c-4.4,0-8.7,0-13.1,0.1c-2.2,0-4.4,0-6.6,0c-3.3,0-6.5-0.1-9.8-0.1c-2.3,0-4.6-0.1-6.9-0.1c-2.6,0-5.2-0.1-7.8-0.1c-1,0-2-0.1-3-0.1  c0.8,0,1.6,0,2.4,0c1.5,0,3.1,0,4.6,0c2.2,0,4.5-0.1,6.7-0.1c2.5,0,5.1-0.1,7.6-0.1c3.5,0,7-0.1,10.6-0.1c2.1,0,4.3,0,6.4,0  c3.4,0,6.7,0,10.1,0.1c1,0,2,0,3,0c2.6,0,5.3,0.1,7.9,0.1c2,0,4.1,0.1,6.1,0.1C81.3,70.9,84.1,71,87,71.1C87,71,87,71,87,71.1z"></path><path d="M13.2,30c1.7,0,3.3,0,5,0c1.6,0,3.2,0,4.8-0.1c0.7,0,1.3,0,2,0c1,0,1.9,0,2.9,0c2,0,4-0.1,6.1-0.1c3.1,0,6.2-0.1,9.3-0.1  c5.3,0,10.5,0,15.8,0c1.4,0,2.8,0,4.1,0c2,0,4,0,6,0.1c2.7,0,5.5,0.1,8.2,0.1c2.3,0,4.6,0,6.8,0.1c0.7,0,1.5,0,2.2,0.1  c-0.3,0-0.6,0-0.9,0c-2.1,0.1-4.3,0.1-6.4,0.1c-1.5,0-3.1,0-4.6,0.1c-1.3,0-2.6,0-3.9,0c-2.4,0-4.8,0.1-7.2,0.1  c-3,0-5.9,0.1-8.9,0.1c-3,0-5.9,0-8.9,0c-2.1,0-4.2,0-6.3,0c-2.8,0-5.5,0-8.3-0.1c-2.3,0-4.7-0.1-7-0.1c-2.5,0-5-0.1-7.5-0.1  C15.4,30.1,14.3,30,13.2,30C13.2,30,13.2,30,13.2,30z"></path><path d="M13.8,72.4c1.1,0,2.2,0,3.3,0c2.2,0,4.5-0.1,6.7-0.1c1.4,0,2.9,0,4.3,0c2.7,0,5.4-0.1,8.1-0.1c3.4,0,6.7-0.1,10.1-0.1  c3.7,0,7.5,0,11.2,0c1.8,0,3.6,0,5.4,0c2.1,0,4.2,0,6.2,0.1c2.3,0,4.6,0.1,6.8,0.1c2.7,0,5.5,0.1,8.2,0.1c0.7,0,1.3,0,2,0  c-0.4,0-0.8,0-1.1,0c-1.9,0-3.8,0.1-5.7,0.1c-1.1,0-2.3,0-3.4,0c-2.2,0-4.4,0.1-6.6,0.1c-2.9,0-5.8,0.1-8.7,0.1c-1.2,0-2.4,0-3.6,0  c-3.5,0-7,0-10.5,0c-1.1,0-2.1,0-3.2,0c-3,0-6,0-8.9-0.1c-3.2,0-6.3-0.1-9.5-0.1c-2.6,0-5.2-0.1-7.8-0.1  C16.1,72.5,15,72.4,13.8,72.4C13.8,72.4,13.8,72.4,13.8,72.4z"></path><path d="M85.6,28.6c-0.9,0-1.7,0-2.6,0.1c-1.5,0-2.9,0-4.4,0.1c-1.6,0-3.2,0-4.7,0.1c-1.6,0-3.2,0-4.7,0.1c-2.1,0-4.1,0-6.2,0.1  c-1.7,0-3.5,0-5.2,0c-3.9,0-7.9,0-11.8,0c-3.3,0-6.7-0.1-10-0.1c-1,0-1.9,0-2.9,0c-1.5,0-3,0-4.5-0.1c-0.8,0-1.6,0-2.5,0  c-2.8,0-5.6-0.1-8.3-0.1c-1.3,0-2.6-0.1-3.8-0.1c0.9,0,1.8,0,2.7,0c1.7,0,3.3,0,5,0c2,0,3.9,0,5.9-0.1c2.9,0,5.9-0.1,8.8-0.1  c2.6,0,5.2-0.1,7.8-0.1c3.5,0,7.1,0,10.6,0c2.9,0,5.8,0,8.8,0.1c2,0,4,0,6,0.1c2.6,0,5.2,0.1,7.8,0.1c2.1,0,4.3,0,6.4,0.1  C84.3,28.6,85,28.6,85.6,28.6C85.6,28.6,85.6,28.6,85.6,28.6z"></path><path d="M85.2,73.8c-0.8,0-1.6,0-2.4,0c-2.7,0-5.3,0.1-8,0.1c-2.2,0-4.4,0.1-6.6,0.1c-3.4,0-6.8,0.1-10.2,0.1c-2.4,0-4.8,0-7.2,0  c-3.8,0-7.7,0-11.5,0c-1.5,0-3.1,0-4.6,0c-2.8,0-5.6-0.1-8.3-0.1c-2.7,0-5.5-0.1-8.2-0.1c-1.2,0-2.3-0.1-3.5-0.1c0.8,0,1.5,0,2.3,0  c1.7,0,3.4,0,5.2,0c2.6,0,5.2-0.1,7.7-0.1c2.9,0,5.8-0.1,8.7-0.1c2.3,0,4.5,0,6.8-0.1c2.2,0,4.4,0,6.7,0c2.6,0,5.2,0,7.8,0  c2.7,0,5.4,0.1,8.2,0.1c2.3,0,4.6,0,6.9,0.1c2.3,0,4.6,0.1,6.9,0.1C82.8,73.7,84,73.7,85.2,73.8C85.2,73.7,85.2,73.8,85.2,73.8z"></path><path d="M85.1,27.3c-0.7,0-1.4,0-2.1,0c-2.8,0-5.6,0.1-8.3,0.1c-2.7,0-5.4,0.1-8.1,0.1c-4.4,0-8.7,0.1-13.1,0.1c-1.5,0-3,0-4.5,0  c-4.4,0-8.8,0-13.2-0.1c-2.5,0-5,0-7.5-0.1c-3.4,0-6.7-0.1-10.1-0.1c-1,0-2-0.1-2.9-0.1c1.2,0,2.5,0,3.7,0c1.3,0,2.7,0,4,0  c2,0,3.9,0,5.9-0.1c3.2,0,6.4-0.1,9.6-0.1c4,0,7.9,0,11.9-0.1c2.2,0,4.5,0,6.7,0c3.3,0,6.6,0.1,9.9,0.1c2.5,0,5,0.1,7.4,0.1  c3,0,6,0.1,9,0.1C83.9,27.2,84.5,27.2,85.1,27.3C85.1,27.2,85.1,27.2,85.1,27.3z"></path><path d="M15.4,75.1c1.4,0,2.7,0,4.1,0c1.3,0,2.6,0,3.9,0c2.7,0,5.4-0.1,8.2-0.1c3.6,0,7.1-0.1,10.7-0.1c4.2,0,8.4,0,12.6,0  c2.9,0,5.8,0,8.7,0.1c1.2,0,2.5,0,3.7,0c1.8,0,3.6,0,5.4,0.1c1.9,0,3.7,0.1,5.6,0.1c1.3,0,2.7,0,4,0c0.7,0,1.4,0,2.1,0  c-0.9,0-1.8,0-2.7,0.1c-2.2,0-4.3,0.1-6.5,0.1c-2.3,0-4.6,0.1-6.9,0.1c-1,0-2,0-3.1,0c-2.7,0-5.4,0-8.1,0.1c-2.6,0-5.3,0-7.9,0  c-1.8,0-3.6,0-5.4,0c-2.4,0-4.8,0-7.2,0c-3,0-6-0.1-8.9-0.1c-2.8,0-5.7-0.1-8.5-0.1C18,75.2,16.7,75.2,15.4,75.1  C15.4,75.1,15.4,75.1,15.4,75.1z"></path><path d="M84.2,25.9c-0.8,0-1.6,0-2.4,0c-2.2,0-4.5,0.1-6.7,0.1c-3,0-6.1,0.1-9.1,0.1c-5,0-10,0.1-14.9,0.1c-3.8,0-7.6,0-11.4,0  c-2.8,0-5.6-0.1-8.4-0.1c-0.8,0-1.6,0-2.5,0c-2.8,0-5.6-0.1-8.4-0.1c-1.5,0-2.9-0.1-4.4-0.1c0.7,0,1.5,0,2.2,0c1.8,0,3.6,0,5.5,0  c2.6,0,5.2-0.1,7.8-0.1c2.2,0,4.3,0,6.5-0.1c3.3,0,6.6,0,9.9,0c3.2,0,6.4,0,9.6,0c2.1,0,4.2,0,6.3,0c3.1,0,6.1,0.1,9.2,0.1  c3.6,0,7.3,0.1,10.9,0.1C83.9,25.9,84,25.9,84.2,25.9C84.2,25.9,84.2,25.9,84.2,25.9z"></path><path d="M83.6,76.5c-0.8,0-1.6,0-2.4,0.1c-2.7,0-5.4,0.1-8.1,0.1c-2.9,0-5.9,0-8.8,0.1c-6.5,0.1-13,0.1-19.6,0.1c-2,0-4.1,0-6.1,0  c-1.9,0-3.9,0-5.8,0c-2.2,0-4.4,0-6.6-0.1c-2,0-4,0-6-0.1c-1.2,0-2.5-0.1-3.7-0.1c0.8,0,1.7,0,2.5,0c1.1,0,2.2,0,3.3,0  c1.8,0,3.6-0.1,5.4-0.1c1.8,0,3.7,0,5.5,0c3.4,0,6.7-0.1,10.1-0.1c3.8,0,7.6,0,11.4,0c3.5,0,7.1,0,10.6,0.1c2.9,0,5.7,0.1,8.6,0.1  c3.1,0,6.3,0.1,9.4,0.1C83.5,76.5,83.5,76.5,83.6,76.5z"></path><path d="M16.7,24.5c0.9,0,1.9,0,2.8,0c2.1,0,4.1,0,6.2,0c2.4,0,4.7,0,7.1-0.1c3.1,0,6.2-0.1,9.3-0.1c4.8,0,9.6,0,14.4,0  c2.4,0,4.7,0,7.1,0c3.2,0,6.3,0.1,9.5,0.1c3.2,0,6.3,0.1,9.5,0.1c0.1,0,0.1,0,0.2,0c-0.6,0-1.3,0-1.9,0c-3.1,0-6.2,0.1-9.3,0.1  c-2.5,0-5,0.1-7.6,0.1c-4.1,0-8.3,0.1-12.4,0.1c-4,0-8.1,0-12.1,0c-2.8,0-5.6-0.1-8.4-0.1c-2.9,0-5.8-0.1-8.7-0.1  C20.5,24.6,18.6,24.6,16.7,24.5C16.7,24.5,16.7,24.5,16.7,24.5z"></path><path d="M17.7,77.8c0.9,0,1.8,0,2.6,0c1.9,0,3.7,0,5.6,0c3.4,0,6.9,0,10.3-0.1c6.4-0.1,12.7-0.1,19.1-0.1c2.5,0,5,0,7.6,0  c2.6,0,5.2,0,7.8,0.1c3,0,6,0.1,9.1,0.1c0.9,0,1.7,0,2.6,0c-1.1,0-2.2,0.1-3.4,0.1c-1.9,0-3.8,0-5.7,0.1c-2.2,0-4.4,0.1-6.7,0.1  c-1.5,0-3.1,0-4.6,0c-2,0-4.1,0-6.1,0c-2.9,0-5.7,0-8.6,0c-1.5,0-3.1,0-4.6,0c-2.6,0-5.1,0-7.7-0.1c-2.5,0-4.9,0-7.4-0.1  c-1.7,0-3.3,0-5,0C21,77.9,19.4,77.9,17.7,77.8C17.8,77.9,17.7,77.9,17.7,77.8z"></path><path d="M17.9,23.1c0.8,0,1.6,0,2.5,0c1.2,0,2.3,0,3.5,0c2.3,0,4.5-0.1,6.8-0.1c2.3,0,4.5,0,6.8,0c3.5,0,7,0,10.5-0.1  c3,0,6.1,0,9.1,0c1.4,0,2.9,0,4.3,0c3.4,0,6.9,0.1,10.3,0.1c2.6,0,5.3,0.1,7.9,0.1c0.8,0,1.6,0,2.5,0c-1.8,0-3.6,0.1-5.4,0.1  c-2.3,0-4.6,0-7,0.1c-4.1,0-8.2,0.1-12.4,0.1c-4.5,0-9,0-13.4,0c-3.4,0-6.8,0-10.2-0.1c-2.7,0-5.3-0.1-8-0.1c-1.4,0-2.7,0-4.1,0  C20.4,23.2,19.2,23.2,17.9,23.1C17.9,23.1,17.9,23.1,17.9,23.1z"></path><path d="M18.7,79.2c0.9,0,1.7,0,2.6,0c2.1,0,4.3,0,6.4,0c3.8,0,7.5-0.1,11.3-0.1c5.3,0,10.6,0,15.9,0c1.7,0,3.5,0,5.2,0  c2.4,0,4.7,0,7.1,0.1c2.4,0,4.8,0.1,7.2,0.1c2.1,0,4.3,0,6.4,0c0.1,0,0.2,0,0.3,0c-0.9,0-1.7,0-2.6,0c-3.5,0-7,0.1-10.5,0.1  c-3.6,0-7.1,0.1-10.7,0.1c-4.5,0-9,0-13.4,0c-2.7,0-5.4,0-8.1,0c-3.7,0-7.4-0.1-11.1-0.1C22.6,79.3,20.7,79.3,18.7,79.2  C18.7,79.2,18.7,79.2,18.7,79.2z"></path><path d="M80.8,21.8c-1.1,0-2.2,0-3.2,0.1c-3.2,0-6.4,0.1-9.7,0.1c-3.6,0-7.2,0.1-10.8,0.1c-4.5,0-8.9,0-13.4,0c-2.7,0-5.5,0-8.2,0  c-3.1,0-6.2,0-9.3-0.1c-2.3,0-4.6-0.1-6.9-0.1c0.8,0,1.7,0,2.5,0c2.2,0,4.4,0,6.6,0c3.1,0,6.2-0.1,9.3-0.1c1.3,0,2.6,0,4,0  c2.7,0,5.4,0,8.2,0c2.5,0,5,0,7.4,0c3.5,0,6.9,0,10.4,0.1c4.3,0,8.6,0.1,12.9,0.1C80.6,21.8,80.7,21.8,80.8,21.8  C80.8,21.8,80.8,21.8,80.8,21.8z"></path><path d="M20,80.6c1.7,0,3.4,0,5.1,0c1.6,0,3.2,0,4.8,0c3.3,0,6.7-0.1,10-0.1c4.5,0,9,0,13.4,0c4.5,0,8.9,0,13.4,0.1  c3.4,0,6.9,0.1,10.3,0.1c0.9,0,1.8,0,2.7,0.1c-0.9,0-1.8,0-2.8,0c-2.9,0-5.8,0-8.8,0.1c-7.9,0.1-15.8,0.1-23.7,0.1  c-2.8,0-5.7,0-8.5,0c-3.3,0-6.6-0.1-9.9-0.1c-2,0-4-0.1-6-0.1C20.1,80.6,20,80.6,20,80.6z"></path><path d="M79.4,20.4c-0.8,0-1.6,0-2.4,0c-2.4,0-4.8,0.1-7.2,0.1c-1.6,0-3.2,0-4.8,0c-6.9,0.1-13.9,0.1-20.8,0.1c-2.8,0-5.5,0-8.3,0  c-3.1,0-6.2-0.1-9.3-0.1c-2,0-4-0.1-6-0.1c0.1,0,0.3,0,0.4,0c2.4,0,4.9,0,7.3,0c1,0,1.9,0,2.9,0c6.9,0,13.8-0.1,20.6-0.1  c4.5,0,9,0,13.4,0c3.9,0,7.8,0.1,11.7,0.1C77.8,20.4,78.6,20.4,79.4,20.4C79.4,20.4,79.4,20.4,79.4,20.4z"></path><path d="M21.4,82c1.1,0,2.1,0,3.2,0c2.4,0,4.7,0,7.1,0c2.7,0,5.5-0.1,8.2-0.1c1.6,0,3.2,0,4.8,0c2.8,0,5.6,0,8.3,0  c4.6,0,9.1,0,13.7,0.1c2.8,0,5.7,0,8.5,0.1c1,0,2,0,3,0.1c-1.1,0-2.2,0-3.4,0.1c-3.1,0-6.3,0.1-9.4,0.1c-2.6,0-5.3,0-7.9,0.1  c-0.9,0-1.9,0-2.8,0c-4.1,0-8.1,0-12.2,0c-4.6,0-9.1,0-13.7-0.1c-1.9,0-3.9-0.1-5.8-0.1C22.6,82,22,82,21.4,82  C21.4,82,21.4,82,21.4,82z"></path><path d="M22.1,19c18.5-0.2,37-0.2,55.6,0c-0.7,0-1.4,0-2.1,0c-2.6,0-5.1,0.1-7.7,0.1c-1.6,0-3.3,0-4.9,0c-2.2,0-4.5,0-6.7,0  c-3.6,0-7.2,0-10.8,0c-1.9,0-3.8,0-5.7,0c-2.8,0-5.7,0-8.5-0.1c-1.6,0-3.2,0-4.7,0C25,19.1,23.5,19.1,22.1,19z"></path><path d="M23.2,83.3c17.9-0.2,35.8-0.2,53.6,0c-1,0-1.9,0-2.9,0c-2.7,0-5.4,0.1-8.1,0.1c-2.6,0-5.1,0-7.7,0c-4.5,0-9,0-13.5,0  c-1.9,0-3.8,0-5.7,0c-3.7,0-7.5,0-11.2-0.1C26.2,83.4,24.7,83.4,23.2,83.3z"></path><path d="M23.6,17.7c17.5-0.2,35.1-0.2,52.6,0c-0.8,0-1.6,0-2.5,0c-1.4,0-2.9,0-4.3,0.1c-2.4,0-4.8,0-7.2,0c-2.1,0-4.1,0-6.2,0  c-3.8,0-7.6,0-11.3,0c-4.3,0-8.5,0-12.8-0.1C29.2,17.8,26.4,17.7,23.6,17.7z"></path><path d="M24.8,84.7c16.7-0.2,33.4-0.2,50.1,0c-1.1,0-2.2,0-3.4,0c-4.4,0-8.8,0.1-13.1,0.1c-4.9,0-9.7,0-14.6,0c-3.3,0-6.5,0-9.8,0  C30.9,84.8,27.9,84.8,24.8,84.7z"></path><path d="M25.4,16.3c3.8-0.1,44.5-0.1,48.8,0c-0.9,0-1.9,0-2.8,0c-4.6,0.1-9.2,0.1-13.8,0.1c-4.2,0-8.5,0-12.7,0c-3.3,0-6.6,0-9.8,0  c-1.6,0-3.2,0-4.7,0c-1.5,0-3.1-0.1-4.6-0.1C25.6,16.3,25.6,16.3,25.4,16.3z"></path><path d="M26.9,86.1c4-0.1,41.1-0.1,46,0c-1.1,0-2.2,0-3.3,0c-4,0-8.1,0.1-12.1,0.1c-6.1,0-12.1,0-18.2,0c-2.2,0-4.5,0-6.7,0  C30.6,86.1,28.8,86.1,26.9,86.1z"></path><path d="M72.1,14.9c-0.7,0-1.5,0-2.2,0c-2.1,0-4.1,0.1-6.2,0.1c-2.3,0-4.6,0-7,0c-6.2,0-12.4,0-18.6,0c-1.7,0-3.4,0-5.1,0  c-1.8,0-3.7-0.1-5.5-0.1C29.3,14.8,69.5,14.8,72.1,14.9z"></path><path d="M70.5,87.4c-5.3,0.2-33.2,0.2-41.7,0C42.8,87.3,56.7,87.3,70.5,87.4z"></path><path d="M70,13.6c-13.3,0.2-26.6,0.2-39.9,0C31.2,13.5,68,13.5,70,13.6z"></path><path d="M31.6,88.8c2.7-0.1,33.6-0.1,36.4,0c-0.9,0-1.7,0-2.6,0c-1.7,0-3.4,0-5.1,0.1c-1.9,0-3.8,0-5.7,0c-4.4,0-8.8,0-13.2,0  c-2.1,0-4.2,0-6.3-0.1C34.1,88.8,32.8,88.8,31.6,88.8z"></path><path d="M32.6,12.2c11.5-0.1,23.1-0.1,34.6,0c-3.8,0-7.7,0.1-11.5,0.1c-3.8,0-7.7,0-11.5,0C40.3,12.3,36.5,12.2,32.6,12.2z"></path><path d="M34.4,90.2c10.1-0.1,20.2-0.1,30.3,0C54.6,90.3,44.5,90.3,34.4,90.2z"></path><path d="M36.4,10.8c9.2,0,18.3,0,27.5,0C54.8,10.9,45.6,10.9,36.4,10.8z"></path><path d="M39.2,91.5c7.1,0,14.2,0,21.4,0C53.4,91.6,46.3,91.6,39.2,91.5z"></path><path d="M41.2,9.4c5.8,0,11.5,0,17.3,0c0,0,0,0,0,0C52.7,9.5,46.9,9.5,41.2,9.4C41.2,9.5,41.2,9.5,41.2,9.4z"></path><path d="M86.3,28.6C86.3,28.6,86.3,28.6,86.3,28.6C86.3,28.6,86.3,28.6,86.3,28.6C86.3,28.6,86.3,28.6,86.3,28.6z"></path><polygon points="83.6,24.5 83.5,24.5 83.5,24.5 "></polygon><path d="M65.2,90.2C65.1,90.2,65.1,90.2,65.2,90.2C65.1,90.2,65.1,90.2,65.2,90.2C65.1,90.2,65.1,90.2,65.2,90.2  C65.1,90.2,65.1,90.2,65.2,90.2z"></path><polygon points="60.3,9.5 60.3,9.5 60.3,9.5 "></polygon><polygon points="26.2,86.1 26.2,86.1 26.2,86.1 "></polygon><polygon points="74.7,16.3 74.7,16.3 74.7,16.3 "></polygon><polygon points="85.6,73.7 85.6,73.7 85.6,73.8 "></polygon><polygon points="39.9,9.5 39.9,9.5 39.9,9.5 "></polygon></g>
</svg>
</g><g opacity="1" transform="rotate(0 167.3108 297.606)">
<svg width="398.398" height="70" x="167.3108" y="297.606" version="1.1" preserveAspectRatio="none" viewBox="4.52 -29 168.92000000000002 29.68">
  <g transform="matrix(1 0 0 1 0 0)" class="companyName"><path id="id-D6z1nYkh9" d="M26.48-28.40L28.36-28.40L28.36 0.68L28.28 0.68L6.40-23.96L6.44 0L4.52 0L4.52-29L4.64-29L26.52-4.16L26.48-28.40Z M43.28-1.32Q45.80-1.32 47.84-3.04L47.84-3.04L48.80-1.68Q47.64-0.76 46.18-0.22Q44.72 0.32 43.24 0.32L43.24 0.32Q40.84 0.32 38.94-0.76Q37.04-1.84 35.98-3.70Q34.92-5.56 34.92-7.88L34.92-7.88Q34.92-10.12 36.04-12.02Q37.16-13.92 39.08-15.04Q41-16.16 43.28-16.16L43.28-16.16Q46-16.16 47.92-14.56Q49.84-12.96 50.72-10.24L50.72-10.24L37.36-5.08Q38.12-3.40 39.70-2.36Q41.28-1.32 43.28-1.32L43.28-1.32ZM43.16-14.56Q41.40-14.56 39.92-13.68Q38.44-12.80 37.60-11.30Q36.76-9.80 36.76-7.96L36.76-7.96Q36.76-7.12 36.92-6.48L36.92-6.48L48.44-11Q47.68-12.60 46.32-13.58Q44.96-14.56 43.16-14.56L43.16-14.56Z M67.12 0L64.88 0L60-6.52L55.36 0L53.36 0L59-7.84L53.16-15.64L55.52-15.64L60.36-9.12L64.84-15.64L66.80-15.64L61.28-7.88L67.12 0Z M94.20-2Q92.76-1.04 90.26-0.36Q87.76 0.32 85.60 0.32L85.60 0.32Q81.24 0.32 77.92-1.56Q74.60-3.44 72.78-6.68Q70.96-9.92 70.96-13.92L70.96-13.92Q70.96-18.16 72.92-21.54Q74.88-24.92 78.20-26.82Q81.52-28.72 85.48-28.72L85.48-28.72Q89.76-28.72 93.28-26.64L93.28-26.64L92.56-24.88Q91.12-25.72 89.28-26.24Q87.44-26.76 85.68-26.76L85.68-26.76Q82.12-26.76 79.20-25.10Q76.28-23.44 74.62-20.54Q72.96-17.64 72.96-14.04L72.96-14.04Q72.96-10.52 74.54-7.68Q76.12-4.84 78.98-3.22Q81.84-1.60 85.56-1.60L85.56-1.60Q87.28-1.60 89.12-2.02Q90.96-2.44 92.24-3.16L92.24-3.16L92.24-11.04L85.84-11.04L85.84-12.92L94.20-12.92L94.20-2Z M108.28-1.32Q110.80-1.32 112.84-3.04L112.84-3.04L113.80-1.68Q112.64-0.76 111.18-0.22Q109.72 0.32 108.24 0.32L108.24 0.32Q105.84 0.32 103.94-0.76Q102.04-1.84 100.98-3.70Q99.92-5.56 99.92-7.88L99.92-7.88Q99.92-10.12 101.04-12.02Q102.16-13.92 104.08-15.04Q106-16.16 108.28-16.16L108.28-16.16Q111-16.16 112.92-14.56Q114.84-12.96 115.72-10.24L115.72-10.24L102.36-5.08Q103.12-3.40 104.70-2.36Q106.28-1.32 108.28-1.32L108.28-1.32ZM108.16-14.56Q106.40-14.56 104.92-13.68Q103.44-12.80 102.60-11.30Q101.76-9.80 101.76-7.96L101.76-7.96Q101.76-7.12 101.92-6.48L101.92-6.48L113.44-11Q112.68-12.60 111.32-13.58Q109.96-14.56 108.16-14.56L108.16-14.56Z M129.32-16.08Q131.48-16.08 132.84-14.78Q134.20-13.48 134.28-11.40L134.28-11.40L134.28 0L132.36 0L132.36-10.88Q132.28-12.44 131.36-13.42Q130.44-14.40 128.72-14.44L128.72-14.44Q127.12-14.44 125.78-13.68Q124.44-12.92 123.62-11.54Q122.80-10.16 122.80-8.40L122.80-8.40L122.80 0L120.92 0L120.92-15.64L122.56-15.64L122.72-12.16Q123.48-13.96 125.30-15.02Q127.12-16.08 129.32-16.08L129.32-16.08Z M141.40-15.64L143.28-15.64L143.28 0L141.40 0L141.40-15.64ZM141-21.40Q141-21.96 141.42-22.34Q141.84-22.72 142.40-22.72L142.40-22.72Q142.96-22.72 143.36-22.34Q143.76-21.96 143.76-21.40L143.76-21.40Q143.76-20.80 143.36-20.42Q142.96-20.04 142.40-20.04L142.40-20.04Q141.84-20.04 141.42-20.44Q141-20.84 141-21.40L141-21.40Z M154.08 0.32Q152.56 0.32 151.14-0.20Q149.72-0.72 148.84-1.80L148.84-1.80L149.72-3.04Q150.52-2.20 151.64-1.70Q152.76-1.20 153.96-1.20L153.96-1.20Q155.48-1.20 156.52-1.90Q157.56-2.60 157.56-4.08L157.56-4.08Q157.56-5.12 157-5.74Q156.44-6.36 155.72-6.66Q155-6.96 153.40-7.48L153.40-7.48Q151.52-8.12 150.50-9.10Q149.48-10.08 149.48-11.72L149.48-11.72Q149.48-13.64 150.82-14.82Q152.16-16 154.24-16L154.24-16Q157.12-16 158.92-14.24L158.92-14.24L158.08-12.92Q157.48-13.72 156.50-14.08Q155.52-14.44 154.52-14.48L154.52-14.48Q153.32-14.48 152.34-13.82Q151.36-13.16 151.36-11.96L151.36-11.96Q151.36-10.72 152.24-10.10Q153.12-9.48 154.92-8.84L154.92-8.84Q157.12-8.12 158.28-7.22Q159.44-6.32 159.44-4.48L159.44-4.48Q159.44-2.32 158.06-1Q156.68 0.32 154.08 0.32L154.08 0.32Z M166.68-22.52L168.60-22.52L168.60-15.44L173.44-15.44L173.44-13.92L168.60-13.92L168.60 0L166.68 0L166.68-13.92L163.36-13.92L163.36-15.44L166.68-15.44L166.68-22.52Z"/></g>
</svg>
</g></svg></svg>